<?xml version="1.0" encoding="utf-8"?>
<!-- Generator: Adobe Illustrator 15.1.0, SVG Export Plug-In . SVG Version: 6.00 Build 0)  -->
<!DOCTYPE svg PUBLIC "-//W3C//DTD SVG 1.1//EN" "http://www.w3.org/Graphics/SVG/1.1/DTD/svg11.dtd">
<svg version="1.1" id="Layer_1" xmlns="http://www.w3.org/2000/svg" xmlns:xlink="http://www.w3.org/1999/xlink" x="0px" y="0px"
	 width="50px" height="50px" viewBox="0 0 50 50" enable-background="new 0 0 50 50" xml:space="preserve">
<circle opacity="0.5" fill="#00666B" enable-background="new    " cx="25" cy="25" r="24"/>
<g opacity="0.5">
	<path fill="#FFFFFF" d="M20.249,37.742c4.798-1.807,5.506-2.965,5.021-7.779C21.401,32.033,19.373,33.135,20.249,37.742
		L20.249,37.742z M18.749,37.742c-4.797-1.807-5.502-2.965-5.02-7.779C17.598,32.033,19.627,33.135,18.749,37.742L18.749,37.742z
		 M19.484,20.986c-2.86-4.181-2.796-4.486,0-8.729C22.233,16.543,22.244,16.955,19.484,20.986L19.484,20.986z M18.749,25.814
		c-4.797-1.809-5.502-2.969-5.02-7.782C17.598,20.102,19.627,21.204,18.749,25.814L18.749,25.814z M20.249,25.814
		c4.798-1.809,5.506-2.969,5.021-7.782C21.401,20.102,19.373,21.204,20.249,25.814L20.249,25.814z M18.749,31.855
		c-4.797-1.807-5.502-2.967-5.02-7.779C17.598,26.144,19.627,27.246,18.749,31.855L18.749,31.855z M20.249,31.855
		c4.798-1.807,5.506-2.967,5.021-7.779C21.401,26.144,19.373,27.246,20.249,31.855L20.249,31.855z"/>
	<path fill="#FFFFFF" d="M32.626,37.742c3.516-1.322,4.034-2.172,3.679-5.701C33.47,33.559,31.982,34.365,32.626,37.742
		L32.626,37.742z M31.526,37.742c-3.515-1.322-4.034-2.172-3.679-5.701C30.683,33.559,32.17,34.365,31.526,37.742L31.526,37.742z
		 M32.065,25.46c-2.098-3.063-2.05-3.287,0-6.396C34.081,22.207,34.086,22.507,32.065,25.46L32.065,25.46z M31.526,29
		c-3.515-1.326-4.034-2.178-3.679-5.705C30.683,24.814,32.17,25.622,31.526,29L31.526,29z M32.626,29
		c3.516-1.326,4.034-2.178,3.679-5.705C33.47,24.814,31.982,25.622,32.626,29L32.626,29z M31.526,33.426
		c-3.515-1.322-4.034-2.176-3.679-5.701C30.683,29.242,32.17,30.051,31.526,33.426L31.526,33.426z M32.626,33.426
		c3.516-1.322,4.034-2.176,3.679-5.701C33.47,29.242,31.982,30.051,32.626,33.426L32.626,33.426z"/>
</g>
</svg>
