<?xml version="1.0" encoding="utf-8"?>
<!-- Generator: Adobe Illustrator 15.1.0, SVG Export Plug-In . SVG Version: 6.00 Build 0)  -->
<!DOCTYPE svg PUBLIC "-//W3C//DTD SVG 1.1//EN" "http://www.w3.org/Graphics/SVG/1.1/DTD/svg11.dtd">
<svg version="1.1" id="Layer_1" xmlns="http://www.w3.org/2000/svg" xmlns:xlink="http://www.w3.org/1999/xlink" x="0px" y="0px"
	 width="50px" height="50px" viewBox="0 0 50 50" enable-background="new 0 0 50 50" xml:space="preserve">
<circle fill-rule="evenodd" clip-rule="evenodd" fill="#00666B" cx="25" cy="25" r="24"/>
<g>
	<path fill="#FFFFFF" d="M19.618,36.328c0,0.38-2.981,0.38-2.981,0l0.696-8.68c0-0.38,0.355-0.69,0.794-0.69l0,0
		c0.439,0,0.795,0.311,0.795,0.69L19.618,36.328z"/>
	<path fill="#FFFFFF" d="M31.051,36.328c0,0.38-2.982,0.38-2.982,0l0.697-10.856c0-0.382,0.355-0.691,0.795-0.691l0,0
		c0.439,0,0.795,0.31,0.795,0.691L31.051,36.328z"/>
	<g>
		<path fill="#FFFFFF" d="M19.601,21.276c0-0.851,0.182-1.66,0.504-2.393c-0.493-0.358-1.099-0.569-1.755-0.569
			c-1.41,0-2.585,0.976-2.905,2.289c-0.015,0-0.03-0.003-0.045-0.003c-1.657,0-2.999,1.342-2.999,2.999
			c0,1.529,1.149,2.777,2.628,2.961c0.271,1.378,1.485,2.417,2.941,2.417c1.205,0,2.235-0.713,2.712-1.738
			c0.718-0.057,1.363-0.369,1.85-0.842C20.77,25.347,19.601,23.432,19.601,21.276z"/>
		<path fill="#FFFFFF" d="M34.459,18.018c0-0.052,0.014-0.101,0.014-0.155c0-2.473-2.004-4.477-4.479-4.477
			c-2.104,0-3.86,1.46-4.336,3.418c-0.025,0-0.046-0.007-0.069-0.007c-0.146,0-0.288,0.01-0.432,0.021
			c-0.047,0.003-0.094,0.014-0.14,0.02c-0.095,0.011-0.188,0.025-0.281,0.042c-0.054,0.012-0.107,0.024-0.16,0.035
			c-0.082,0.02-0.166,0.041-0.247,0.065c-0.056,0.014-0.109,0.033-0.162,0.052c-0.079,0.024-0.157,0.054-0.233,0.084
			c-0.053,0.021-0.104,0.042-0.154,0.064c-0.076,0.034-0.151,0.071-0.224,0.107c-0.05,0.025-0.099,0.049-0.145,0.074
			c-0.077,0.044-0.152,0.091-0.228,0.139c-0.039,0.026-0.082,0.049-0.12,0.076c-0.099,0.068-0.193,0.138-0.286,0.213
			c-0.013,0.011-0.027,0.019-0.039,0.03c-0.104,0.083-0.202,0.176-0.296,0.269c-0.035,0.034-0.067,0.071-0.099,0.105
			c-0.061,0.063-0.119,0.126-0.176,0.193c-0.036,0.042-0.069,0.087-0.104,0.13c-0.049,0.063-0.097,0.125-0.142,0.191
			c-0.034,0.048-0.065,0.097-0.099,0.147c-0.041,0.064-0.082,0.13-0.12,0.197c-0.031,0.052-0.059,0.104-0.086,0.157
			c-0.036,0.07-0.069,0.141-0.102,0.212c-0.025,0.053-0.05,0.105-0.073,0.162c-0.029,0.076-0.057,0.155-0.084,0.233
			c-0.018,0.053-0.038,0.103-0.054,0.156c-0.03,0.101-0.056,0.205-0.08,0.31c-0.007,0.032-0.017,0.062-0.023,0.095l0,0
			c-0.058,0.29-0.09,0.589-0.09,0.896c0,1.643,0.892,3.064,2.211,3.836c0.125,0.074,0.257,0.141,0.388,0.202
			c0.005,0.003,0.012,0.006,0.018,0.009c0.123,0.057,0.25,0.107,0.378,0.151c0.016,0.006,0.032,0.012,0.05,0.019
			c0.118,0.041,0.24,0.075,0.362,0.104c0.025,0.007,0.051,0.014,0.077,0.021c0.145,0.033,0.292,0.06,0.44,0.079
			c0.406,2.057,2.215,3.608,4.393,3.608c1.797,0,3.334-1.065,4.049-2.594c2.303-0.182,4.123-2.088,4.123-4.441
			C37.6,20.265,36.273,18.59,34.459,18.018z"/>
	</g>
</g>
</svg>
