<?xml version="1.0" encoding="utf-8"?>
<!-- Generator: Adobe Illustrator 15.1.0, SVG Export Plug-In . SVG Version: 6.00 Build 0)  -->
<!DOCTYPE svg PUBLIC "-//W3C//DTD SVG 1.1//EN" "http://www.w3.org/Graphics/SVG/1.1/DTD/svg11.dtd">
<svg version="1.1" id="Layer_1" xmlns="http://www.w3.org/2000/svg" xmlns:xlink="http://www.w3.org/1999/xlink" x="0px" y="0px"
	 width="50px" height="50px" viewBox="0 0 50 50" enable-background="new 0 0 50 50" xml:space="preserve">
<circle opacity="0.5" fill-rule="evenodd" clip-rule="evenodd" fill="#A2B55B" cx="25" cy="25" r="24"/>
<g opacity="0.5">
	<polygon fill="#FFFFFF" points="23.385,32.704 26.528,32.704 26.498,33.234 25.008,34.044 23.437,33.25 	"/>
	<path fill="#FFFFFF" d="M32.074,24.367c-0.159-0.041-0.318-0.094-0.479-0.155c-0.363-0.143-0.543-0.554-0.4-0.919
		c0.143-0.363,0.554-0.545,0.917-0.401c0.696,0.271,1.352,0.262,2-0.034c1.23-0.56,2.211-2.06,2.778-3.182l-5.795,0.389
		c-0.391,0.027-0.729-0.269-0.755-0.659c-0.025-0.391,0.27-0.727,0.66-0.754l6.958-0.466c0.237-0.016,0.468,0.089,0.612,0.28
		c0.144,0.19,0.183,0.441,0.102,0.665c-0.057,0.157-1.405,3.85-3.974,5.017C33.849,24.534,32.966,24.607,32.074,24.367z"/>
	<path fill="#FFFFFF" d="M17.926,24.367c-0.894,0.24-1.775,0.167-2.625-0.221c-2.568-1.167-3.917-4.86-3.974-5.017
		c-0.081-0.224-0.043-0.475,0.101-0.666c0.145-0.191,0.375-0.295,0.612-0.279l6.958,0.466c0.389,0.027,0.686,0.363,0.66,0.754
		c-0.027,0.39-0.365,0.688-0.756,0.659l-5.788-0.39c0.521,1.046,1.478,2.596,2.775,3.184c0.648,0.295,1.303,0.304,1.998,0.033
		c0.367-0.145,0.774,0.038,0.917,0.401c0.141,0.365-0.039,0.776-0.401,0.919C18.244,24.273,18.084,24.326,17.926,24.367z"/>
	<path fill="#FFFFFF" d="M25.785,19.586c-0.17,0.05-0.352-0.049-0.401-0.22c-0.051-0.172,0.048-0.351,0.22-0.401
		c0.032-0.011,3.202-0.958,3.68-2.626c0-0.005,0.304-1.19,0.253-2.401c-0.005-0.129,0.067-0.248,0.184-0.304
		c0.117-0.056,0.256-0.038,0.353,0.047c0.074,0.064,1.788,1.585,1.384,3.609c-0.014,0.076-0.384,2.057-2.486,3.076
		c-0.045,0.022-0.093,0.032-0.141,0.032c-0.12,0.001-0.236-0.066-0.292-0.183c-0.078-0.161-0.01-0.354,0.15-0.433"/>
	<path fill="#FFFFFF" d="M21.217,19.782c0.161,0.079,0.227,0.272,0.149,0.433c-0.056,0.116-0.171,0.183-0.291,0.183
		c-0.047,0-0.096-0.009-0.142-0.032c-2.1-1.019-2.472-3-2.486-3.083c-0.405-2.017,1.31-3.538,1.383-3.602
		c0.099-0.084,0.237-0.103,0.353-0.047c0.116,0.056,0.188,0.175,0.183,0.304c-0.051,1.211,0.253,2.396,0.257,2.408
		c0.474,1.662,3.645,2.609,3.677,2.62c0.17,0.05,0.27,0.229,0.219,0.401c-0.05,0.17-0.228,0.27-0.401,0.22"/>
	<path fill="#FFFFFF" d="M29.704,18.557c-0.132-0.1-0.307-0.157-0.486-0.157h-8.284c-0.113,0-0.224,0.023-0.326,0.064
		c-0.156,0.066-3.835,1.678-4.103,7.284c-0.007,0.151,0.059,0.297,0.182,0.408c0.036,0.032,3.656,3.345,4.312,8.661
		c0.012,0.109,0.063,0.213,0.147,0.298c0.051,0.053,1.275,1.283,3.848,1.283c0.747,0,2.603-0.132,3.709-1.354
		c0.07-0.077,0.114-0.166,0.13-0.261c0.007-0.038,0.723-3.912,4.347-8.593c0.055-0.07,0.091-0.149,0.103-0.231
		C33.311,25.789,33.894,21.774,29.704,18.557z M20.921,26.099c-0.551-0.181-0.836-0.652-0.637-1.057
		c0.198-0.406,0.808-0.588,1.359-0.411c0.551,0.181,0.836,0.654,0.635,1.06C22.081,26.094,21.471,26.277,20.921,26.099z
		 M27.464,34.464c-0.74,0.705-1.961,0.784-2.47,0.784c-1.477,0-2.316-0.515-2.613-0.74c-0.136-0.999-0.37-1.924-0.656-2.775
		c0.538-0.144,3.247-0.771,6.589,0.107C27.775,33.163,27.542,34.104,27.464,34.464z M29.222,26.099
		c-0.551,0.179-1.16-0.005-1.358-0.408c-0.199-0.405,0.085-0.879,0.638-1.06c0.549-0.177,1.158,0.005,1.357,0.411
		C30.059,25.446,29.772,25.918,29.222,26.099z"/>
</g>
</svg>
