<?xml version="1.0" encoding="utf-8"?>
<!-- Generator: Adobe Illustrator 15.1.0, SVG Export Plug-In . SVG Version: 6.00 Build 0)  -->
<!DOCTYPE svg PUBLIC "-//W3C//DTD SVG 1.1//EN" "http://www.w3.org/Graphics/SVG/1.1/DTD/svg11.dtd">
<svg version="1.1" id="Layer_1" xmlns="http://www.w3.org/2000/svg" xmlns:xlink="http://www.w3.org/1999/xlink" x="0px" y="0px"
	 width="50px" height="50px" viewBox="0 0 50 50" enable-background="new 0 0 50 50" xml:space="preserve">
<path opacity="0.5" fill-rule="evenodd" clip-rule="evenodd" fill="#C63F27" d="M49,25c0,13.252-10.748,24-24,24
	C11.748,49,1,38.252,1,25C1,11.748,11.748,1,25,1C38.252,1,49,11.748,49,25z"/>
<g opacity="0.5">
	<rect x="19.553" y="34.378" fill="#FFFFFF" width="7.49" height="2.374"/>
	<path fill="#FFFFFF" d="M26.767,33.538c6.416-2.055,6.079-8.78,6.079-8.78H13.75c0.138,5.653,3.501,7.893,6.148,8.78H26.767z"/>
	<g>
		<path fill="#FFFFFF" d="M31.018,22.883c-0.273-1.324-1.096-0.823-1.096-0.823c0.138-1.734-1.919-1.049-1.919-1.049
			c-0.319-1.966-2.376-0.549-2.376-0.549c-0.594-1.964-2.101-0.183-2.101-0.183c-0.548-1.736-2.057-0.686-2.057-0.686
			c-1.599-0.776-1.917,0.961-1.917,0.961c-2.97-1.554-3.017,1.598-3.017,1.598c-2.467-0.274-2.238,1.645-2.238,1.645h18
			C32.251,21.833,31.018,22.883,31.018,22.883z M18.089,22.933c-0.2,0-0.364-0.164-0.364-0.366c0-0.201,0.164-0.365,0.364-0.365
			c0.202,0,0.366,0.164,0.366,0.365C18.455,22.769,18.291,22.933,18.089,22.933z M19.779,21.497c-0.201,0-0.365-0.164-0.365-0.366
			s0.164-0.366,0.365-0.366c0.202,0,0.366,0.164,0.366,0.366S19.981,21.497,19.779,21.497z M21.241,22.933
			c-0.2,0-0.364-0.164-0.364-0.366c0-0.201,0.164-0.365,0.364-0.365c0.202,0,0.366,0.164,0.366,0.365
			C21.607,22.769,21.443,22.933,21.241,22.933z M22.568,21.497c-0.202,0-0.366-0.164-0.366-0.366s0.164-0.366,0.366-0.366
			s0.366,0.164,0.366,0.366S22.771,21.497,22.568,21.497z M23.844,22.933c-0.2,0-0.364-0.164-0.364-0.366
			c0-0.201,0.164-0.365,0.364-0.365c0.203,0,0.367,0.164,0.367,0.365C24.211,22.769,24.047,22.933,23.844,22.933z M25.535,21.497
			c-0.201,0-0.365-0.164-0.365-0.366s0.164-0.366,0.365-0.366s0.365,0.164,0.365,0.366S25.736,21.497,25.535,21.497z"/>
	</g>
	<g>
		<path fill="#FFFFFF" d="M33.889,14.312c-0.021-1.387-1.082-1.02-1.082-1.02l-8.7,7.017l0.469,0.844L33.889,14.312z"/>
		<path fill="#FFFFFF" d="M35.474,16.509l-10.208,5.736l0.387,0.838l10.42-5.279C36.697,16.766,35.474,16.509,35.474,16.509z"/>
	</g>
</g>
</svg>
