<?xml version="1.0" encoding="utf-8"?>
<!-- Generator: Adobe Illustrator 15.1.0, SVG Export Plug-In . SVG Version: 6.00 Build 0)  -->
<!DOCTYPE svg PUBLIC "-//W3C//DTD SVG 1.1//EN" "http://www.w3.org/Graphics/SVG/1.1/DTD/svg11.dtd">
<svg version="1.1" id="Layer_1" xmlns="http://www.w3.org/2000/svg" xmlns:xlink="http://www.w3.org/1999/xlink" x="0px" y="0px"
	 width="50px" height="50px" viewBox="0 0 50 50" enable-background="new 0 0 50 50" xml:space="preserve">
<circle opacity="0.5" fill-rule="evenodd" clip-rule="evenodd" fill="#A2B55B" cx="25" cy="25" r="24"/>
<g opacity="0.5">
	<path fill="#FFFFFF" d="M19.618,36.33c0,0.378-2.981,0.378-2.981,0l0.696-8.682c0-0.38,0.355-0.69,0.795-0.69l0,0
		c0.438,0,0.794,0.311,0.794,0.69L19.618,36.33z"/>
	<path fill="#FFFFFF" d="M31.051,36.33c0,0.378-2.982,0.378-2.982,0l0.697-10.859c0-0.38,0.355-0.691,0.795-0.691l0,0
		c0.439,0,0.795,0.312,0.795,0.691L31.051,36.33z"/>
	<g>
		<path fill="#FFFFFF" d="M19.601,21.276c0-0.851,0.182-1.66,0.504-2.393c-0.493-0.358-1.098-0.569-1.754-0.569
			c-1.411,0-2.586,0.977-2.906,2.29c-0.015,0-0.03-0.004-0.045-0.004c-1.657,0-2.999,1.342-2.999,2.998
			c0,1.53,1.149,2.777,2.627,2.962c0.272,1.378,1.486,2.416,2.941,2.416c1.206,0,2.236-0.712,2.714-1.737
			c0.717-0.057,1.362-0.369,1.849-0.842C20.77,25.347,19.601,23.432,19.601,21.276z"/>
		<path fill="#FFFFFF" d="M34.457,18.018c0.002-0.052,0.016-0.101,0.016-0.155c0-2.473-2.004-4.477-4.479-4.477
			c-2.104,0-3.86,1.46-4.338,3.419c-0.023,0-0.044-0.008-0.067-0.008c-0.146,0-0.288,0.01-0.432,0.021
			c-0.047,0.003-0.094,0.014-0.138,0.02c-0.097,0.011-0.188,0.026-0.281,0.042c-0.056,0.012-0.109,0.023-0.162,0.035
			c-0.082,0.02-0.166,0.042-0.247,0.065c-0.056,0.014-0.109,0.033-0.162,0.052c-0.081,0.023-0.155,0.054-0.233,0.084
			c-0.051,0.021-0.105,0.042-0.154,0.064c-0.076,0.034-0.151,0.071-0.224,0.107c-0.048,0.025-0.099,0.048-0.145,0.074
			c-0.077,0.044-0.152,0.091-0.228,0.138c-0.039,0.027-0.082,0.05-0.12,0.077c-0.099,0.068-0.193,0.138-0.286,0.213
			c-0.013,0.011-0.027,0.019-0.039,0.03c-0.105,0.084-0.202,0.176-0.296,0.269c-0.035,0.034-0.067,0.071-0.099,0.105
			c-0.063,0.063-0.121,0.125-0.176,0.193c-0.036,0.042-0.069,0.087-0.104,0.13c-0.049,0.063-0.099,0.125-0.142,0.191
			c-0.034,0.048-0.065,0.098-0.099,0.147c-0.041,0.064-0.082,0.13-0.12,0.197c-0.031,0.052-0.059,0.105-0.086,0.157
			c-0.036,0.07-0.069,0.141-0.102,0.211c-0.023,0.054-0.05,0.105-0.073,0.163c-0.029,0.076-0.056,0.154-0.084,0.233
			c-0.018,0.053-0.038,0.103-0.054,0.155c-0.03,0.102-0.056,0.206-0.08,0.312c-0.007,0.031-0.017,0.061-0.023,0.094l0,0
			c-0.058,0.29-0.091,0.589-0.091,0.896c0,1.643,0.893,3.065,2.212,3.836c0.127,0.074,0.257,0.141,0.388,0.202
			c0.005,0.003,0.012,0.005,0.018,0.009c0.123,0.057,0.25,0.108,0.378,0.151c0.016,0.006,0.032,0.012,0.05,0.019
			c0.118,0.041,0.24,0.075,0.362,0.104c0.025,0.007,0.049,0.014,0.077,0.021c0.145,0.033,0.292,0.06,0.44,0.079
			c0.406,2.057,2.215,3.608,4.393,3.608c1.795,0,3.334-1.065,4.049-2.594c2.303-0.182,4.123-2.088,4.123-4.441
			C37.6,20.265,36.273,18.59,34.457,18.018z"/>
	</g>
</g>
</svg>
