<?xml version="1.0" encoding="utf-8"?>
<!-- Generator: Adobe Illustrator 15.1.0, SVG Export Plug-In . SVG Version: 6.00 Build 0)  -->
<!DOCTYPE svg PUBLIC "-//W3C//DTD SVG 1.1//EN" "http://www.w3.org/Graphics/SVG/1.1/DTD/svg11.dtd">
<svg version="1.1" id="Layer_1" xmlns="http://www.w3.org/2000/svg" xmlns:xlink="http://www.w3.org/1999/xlink" x="0px" y="0px"
	 width="50px" height="50px" viewBox="0 0 50 50" enable-background="new 0 0 50 50" xml:space="preserve">
<circle fill-rule="evenodd" clip-rule="evenodd" fill="#C63F27" cx="25" cy="25" r="24"/>
<g>
	<polygon fill="#FFFFFF" points="23.386,32.704 26.528,32.704 26.497,33.234 25.008,34.044 23.437,33.251 	"/>
	<path fill="#FFFFFF" d="M32.073,24.367c-0.157-0.042-0.317-0.094-0.477-0.156c-0.364-0.144-0.544-0.554-0.401-0.919
		c0.144-0.363,0.553-0.545,0.917-0.401c0.697,0.272,1.352,0.262,2-0.034c1.231-0.56,2.211-2.06,2.778-3.182l-5.795,0.388
		c-0.39,0.028-0.729-0.27-0.755-0.659c-0.025-0.391,0.27-0.727,0.661-0.754l6.957-0.466c0.238-0.016,0.468,0.089,0.613,0.28
		c0.144,0.19,0.181,0.44,0.101,0.665c-0.058,0.157-1.404,3.849-3.975,5.017C33.849,24.534,32.966,24.607,32.073,24.367z"/>
	<path fill="#FFFFFF" d="M17.927,24.367c-0.894,0.24-1.776,0.167-2.625-0.221c-2.568-1.168-3.917-4.86-3.974-5.017
		c-0.081-0.225-0.042-0.475,0.101-0.667c0.145-0.191,0.375-0.294,0.612-0.278l6.958,0.466c0.39,0.027,0.687,0.363,0.661,0.754
		c-0.028,0.39-0.365,0.688-0.756,0.659l-5.789-0.39c0.521,1.046,1.478,2.596,2.776,3.185c0.647,0.294,1.302,0.303,1.998,0.032
		c0.367-0.144,0.773,0.038,0.917,0.401c0.141,0.366-0.038,0.776-0.401,0.919C18.244,24.273,18.084,24.326,17.927,24.367z"/>
	<path fill="#FFFFFF" d="M25.786,19.586c-0.17,0.05-0.353-0.05-0.402-0.22c-0.05-0.172,0.049-0.352,0.221-0.401
		c0.031-0.01,3.203-0.958,3.68-2.626c0-0.005,0.304-1.191,0.254-2.401c-0.006-0.129,0.066-0.25,0.184-0.305
		c0.117-0.056,0.256-0.039,0.352,0.047c0.074,0.064,1.788,1.585,1.384,3.609c-0.014,0.076-0.384,2.056-2.485,3.076
		c-0.046,0.022-0.094,0.031-0.141,0.031c-0.12,0.001-0.236-0.066-0.294-0.182c-0.077-0.161-0.009-0.354,0.151-0.434"/>
	<path fill="#FFFFFF" d="M21.218,19.78c0.159,0.08,0.227,0.272,0.147,0.434c-0.055,0.116-0.17,0.182-0.29,0.182
		c-0.047,0-0.097-0.009-0.143-0.031c-2.1-1.02-2.47-3-2.485-3.083c-0.406-2.017,1.31-3.538,1.383-3.602
		c0.1-0.085,0.237-0.103,0.353-0.047c0.116,0.055,0.189,0.176,0.184,0.305c-0.051,1.21,0.253,2.396,0.258,2.408
		c0.474,1.662,3.644,2.609,3.677,2.62c0.169,0.05,0.269,0.229,0.219,0.401c-0.052,0.169-0.229,0.27-0.401,0.22"/>
	<path fill="#FFFFFF" d="M29.703,18.556c-0.13-0.1-0.306-0.157-0.486-0.157h-8.284c-0.112,0-0.224,0.023-0.324,0.065
		c-0.158,0.065-3.837,1.678-4.104,7.283c-0.007,0.152,0.059,0.298,0.182,0.409c0.037,0.032,3.656,3.345,4.313,8.663
		c0.011,0.107,0.063,0.212,0.146,0.297c0.051,0.053,1.274,1.284,3.848,1.284c0.748,0,2.603-0.133,3.709-1.354
		c0.07-0.077,0.114-0.166,0.13-0.26c0.008-0.039,0.723-3.914,4.347-8.594c0.055-0.07,0.091-0.148,0.103-0.231
		C33.31,25.788,33.894,21.774,29.703,18.556z M20.92,26.098c-0.55-0.182-0.834-0.653-0.636-1.058
		c0.198-0.405,0.808-0.587,1.359-0.41c0.551,0.18,0.835,0.653,0.635,1.06C22.081,26.092,21.471,26.277,20.92,26.098z M27.464,34.464
		c-0.74,0.706-1.961,0.785-2.47,0.785c-1.477,0-2.316-0.516-2.613-0.742c-0.136-0.998-0.371-1.923-0.656-2.773
		c0.538-0.144,3.247-0.772,6.589,0.106C27.776,33.163,27.542,34.104,27.464,34.464z M29.222,26.098
		c-0.551,0.179-1.16-0.006-1.357-0.408c-0.2-0.406,0.084-0.879,0.637-1.06c0.549-0.177,1.158,0.005,1.358,0.41
		C30.058,25.445,29.772,25.917,29.222,26.098z"/>
</g>
</svg>
