<?xml version="1.0" encoding="utf-8"?>
<!-- Generator: Adobe Illustrator 15.1.0, SVG Export Plug-In . SVG Version: 6.00 Build 0)  -->
<!DOCTYPE svg PUBLIC "-//W3C//DTD SVG 1.1//EN" "http://www.w3.org/Graphics/SVG/1.1/DTD/svg11.dtd">
<svg version="1.1" id="Layer_1" xmlns="http://www.w3.org/2000/svg" xmlns:xlink="http://www.w3.org/1999/xlink" x="0px" y="0px"
	 width="50px" height="50px" viewBox="0 0 50 50" enable-background="new 0 0 50 50" xml:space="preserve">
<g opacity="0.5">
	<circle fill="#C63F27" cx="25" cy="25" r="24"/>
	<g>
		<path fill="#FFFFFF" d="M20.849,37.143c4.798-1.808,5.506-2.967,5.021-7.781C22.001,31.433,19.973,32.534,20.849,37.143
			L20.849,37.143z M19.349,37.143c-4.797-1.808-5.502-2.967-5.02-7.781C18.197,31.433,20.228,32.534,19.349,37.143L19.349,37.143z
			 M20.084,20.385c-2.86-4.181-2.796-4.486,0-8.728C22.833,15.942,22.844,16.355,20.084,20.385L20.084,20.385z M19.349,25.213
			c-4.797-1.811-5.502-2.968-5.02-7.782C18.197,19.501,20.228,20.602,19.349,25.213L19.349,25.213z M20.849,25.213
			c4.798-1.811,5.506-2.968,5.021-7.782C22.001,19.501,19.973,20.602,20.849,25.213L20.849,25.213z M19.349,31.255
			c-4.797-1.808-5.502-2.966-5.02-7.781C18.197,25.544,20.228,26.646,19.349,31.255L19.349,31.255z M20.849,31.255
			c4.798-1.808,5.506-2.966,5.021-7.781C22.001,25.544,19.973,26.646,20.849,31.255L20.849,31.255z"/>
		<path fill="#FFFFFF" d="M33.226,37.143c3.516-1.324,4.035-2.174,3.679-5.702C34.069,32.958,32.582,33.766,33.226,37.143
			L33.226,37.143z M32.126,37.143c-3.515-1.324-4.034-2.174-3.678-5.702C31.282,32.958,32.77,33.766,32.126,37.143L32.126,37.143z
			 M32.665,24.859c-2.097-3.064-2.05-3.287,0-6.397C34.681,21.606,34.687,21.907,32.665,24.859L32.665,24.859z M32.126,28.399
			c-3.515-1.326-4.034-2.177-3.678-5.704C31.282,24.214,32.77,25.021,32.126,28.399L32.126,28.399z M33.226,28.399
			c3.516-1.326,4.035-2.177,3.679-5.704C34.069,24.214,32.582,25.021,33.226,28.399L33.226,28.399z M32.126,32.826
			c-3.515-1.323-4.034-2.175-3.678-5.702C31.282,28.643,32.77,29.449,32.126,32.826L32.126,32.826z M33.226,32.826
			c3.516-1.323,4.035-2.175,3.679-5.702C34.069,28.643,32.582,29.449,33.226,32.826L33.226,32.826z"/>
	</g>
</g>
</svg>
