<?xml version="1.0" encoding="utf-8"?>
<!-- Generator: Adobe Illustrator 15.1.0, SVG Export Plug-In . SVG Version: 6.00 Build 0)  -->
<!DOCTYPE svg PUBLIC "-//W3C//DTD SVG 1.1//EN" "http://www.w3.org/Graphics/SVG/1.1/DTD/svg11.dtd">
<svg version="1.1" id="Layer_1" xmlns="http://www.w3.org/2000/svg" xmlns:xlink="http://www.w3.org/1999/xlink" x="0px" y="0px"
	 width="50px" height="50px" viewBox="0 0 50 50" enable-background="new 0 0 50 50" xml:space="preserve">
<g opacity="0.5">
	<circle fill="#00666B" cx="25" cy="25" r="24"/>
	<g>
		<polygon fill="#FFFFFF" points="23.385,33.134 26.528,33.134 26.498,33.662 25.008,34.473 23.437,33.679 		"/>
		<path fill="#FFFFFF" d="M32.074,24.796c-0.159-0.042-0.318-0.095-0.478-0.155c-0.364-0.143-0.544-0.554-0.401-0.918
			c0.143-0.364,0.553-0.545,0.918-0.402c0.695,0.272,1.351,0.262,1.999-0.034c1.23-0.56,2.211-2.06,2.779-3.182l-5.796,0.389
			c-0.39,0.027-0.729-0.269-0.754-0.659c-0.025-0.391,0.271-0.728,0.66-0.755l6.958-0.466c0.237-0.017,0.467,0.088,0.613,0.279
			c0.143,0.19,0.182,0.441,0.102,0.665c-0.059,0.157-1.406,3.85-3.976,5.018C33.848,24.964,32.966,25.035,32.074,24.796z"/>
		<path fill="#FFFFFF" d="M17.926,24.796c-0.894,0.239-1.775,0.168-2.625-0.22c-2.568-1.168-3.917-4.861-3.974-5.018
			c-0.08-0.224-0.042-0.475,0.101-0.666c0.146-0.191,0.375-0.296,0.613-0.279l6.958,0.466c0.39,0.027,0.686,0.363,0.66,0.755
			c-0.027,0.39-0.365,0.687-0.756,0.659l-5.788-0.389c0.521,1.046,1.479,2.596,2.774,3.183c0.649,0.296,1.304,0.303,1.999,0.033
			c0.367-0.144,0.775,0.039,0.918,0.402c0.141,0.365-0.039,0.776-0.4,0.918C18.244,24.701,18.084,24.754,17.926,24.796z"/>
		<path fill="#FFFFFF" d="M25.786,20.016c-0.17,0.05-0.353-0.049-0.402-0.22c-0.05-0.172,0.047-0.351,0.22-0.4
			c0.032-0.011,3.203-0.959,3.681-2.627c0.001-0.004,0.304-1.19,0.253-2.402c-0.003-0.128,0.068-0.248,0.185-0.303
			c0.117-0.057,0.257-0.038,0.353,0.047c0.072,0.064,1.786,1.585,1.383,3.608c-0.015,0.077-0.384,2.059-2.485,3.077
			c-0.046,0.022-0.094,0.031-0.141,0.031c-0.122,0-0.236-0.066-0.293-0.182c-0.079-0.161-0.011-0.354,0.15-0.433"/>
		<path fill="#FFFFFF" d="M21.218,20.21c0.16,0.079,0.226,0.272,0.148,0.433c-0.055,0.117-0.171,0.182-0.291,0.182
			c-0.047,0-0.096-0.009-0.141-0.031c-2.101-1.019-2.472-3-2.487-3.083c-0.405-2.017,1.311-3.538,1.384-3.602
			c0.099-0.084,0.237-0.103,0.352-0.047c0.116,0.057,0.188,0.175,0.183,0.303c-0.05,1.212,0.253,2.397,0.257,2.409
			c0.475,1.661,3.645,2.609,3.678,2.62c0.171,0.05,0.27,0.229,0.22,0.4c-0.05,0.171-0.228,0.271-0.401,0.22"/>
		<path fill="#FFFFFF" d="M29.704,18.985c-0.131-0.1-0.307-0.156-0.487-0.156h-8.283c-0.113,0-0.225,0.022-0.326,0.063
			c-0.156,0.066-3.835,1.679-4.103,7.283c-0.007,0.151,0.059,0.298,0.182,0.408c0.037,0.032,3.657,3.345,4.312,8.661
			c0.013,0.109,0.063,0.214,0.148,0.298c0.051,0.055,1.275,1.282,3.848,1.282c0.747,0,2.603-0.131,3.709-1.353
			c0.069-0.077,0.114-0.166,0.131-0.26c0.006-0.037,0.723-3.913,4.345-8.593c0.056-0.069,0.092-0.149,0.104-0.232
			C33.31,26.219,33.895,22.204,29.704,18.985z M20.921,26.527c-0.552-0.181-0.836-0.652-0.638-1.057
			c0.199-0.406,0.808-0.588,1.359-0.412c0.551,0.181,0.836,0.656,0.636,1.06C22.08,26.522,21.471,26.706,20.921,26.527z
			 M27.464,34.893c-0.741,0.705-1.961,0.783-2.47,0.783c-1.477,0-2.316-0.515-2.614-0.74c-0.137-0.999-0.37-1.924-0.657-2.775
			c0.538-0.142,3.247-0.772,6.59,0.107C27.775,33.591,27.543,34.532,27.464,34.893z M29.223,26.527
			c-0.552,0.179-1.161-0.005-1.359-0.408c-0.199-0.404,0.086-0.879,0.638-1.06c0.549-0.177,1.158,0.006,1.357,0.412
			C30.059,25.875,29.773,26.347,29.223,26.527z"/>
	</g>
</g>
</svg>
