<?xml version="1.0" encoding="utf-8"?>
<!-- Generator: Adobe Illustrator 15.1.0, SVG Export Plug-In . SVG Version: 6.00 Build 0)  -->
<!DOCTYPE svg PUBLIC "-//W3C//DTD SVG 1.1//EN" "http://www.w3.org/Graphics/SVG/1.1/DTD/svg11.dtd">
<svg version="1.1" id="Layer_1" xmlns="http://www.w3.org/2000/svg" xmlns:xlink="http://www.w3.org/1999/xlink" x="0px" y="0px"
	 width="50px" height="50px" viewBox="0 0 50 50" enable-background="new 0 0 50 50" xml:space="preserve">
<circle opacity="0.5" fill-rule="evenodd" clip-rule="evenodd" fill="#A2B55B" cx="25" cy="25" r="24"/>
<g opacity="0.5">
	<path fill-rule="evenodd" clip-rule="evenodd" fill="#FFFFFF" d="M20.249,37.742c4.797-1.807,5.505-2.967,5.02-7.78
		C21.401,32.033,19.373,33.135,20.249,37.742L20.249,37.742z M18.749,37.742c-4.797-1.807-5.503-2.967-5.02-7.78
		C17.597,32.033,19.628,33.135,18.749,37.742L18.749,37.742z M19.484,20.985c-2.86-4.181-2.796-4.486,0-8.728
		C22.233,16.542,22.244,16.954,19.484,20.985L19.484,20.985z M18.749,25.813c-4.797-1.81-5.503-2.968-5.02-7.783
		C17.597,20.102,19.628,21.203,18.749,25.813L18.749,25.813z M20.249,25.813c4.797-1.81,5.505-2.968,5.02-7.783
		C21.401,20.102,19.373,21.203,20.249,25.813L20.249,25.813z M18.749,31.855c-4.797-1.809-5.503-2.967-5.02-7.781
		C17.597,26.144,19.628,27.246,18.749,31.855L18.749,31.855z M20.249,31.855c4.797-1.809,5.505-2.967,5.02-7.781
		C21.401,26.144,19.373,27.246,20.249,31.855L20.249,31.855z"/>
	<path fill-rule="evenodd" clip-rule="evenodd" fill="#FFFFFF" d="M32.626,37.742c3.516-1.324,4.034-2.172,3.68-5.701
		C33.47,33.559,31.983,34.365,32.626,37.742L32.626,37.742z M31.526,37.742c-3.516-1.324-4.034-2.172-3.679-5.701
		C30.683,33.559,32.17,34.365,31.526,37.742L31.526,37.742z M32.065,25.46c-2.097-3.064-2.05-3.287,0-6.397
		C34.081,22.207,34.087,22.507,32.065,25.46L32.065,25.46z M31.526,29c-3.516-1.326-4.034-2.176-3.679-5.706
		C30.683,24.814,32.17,25.621,31.526,29L31.526,29z M32.626,29c3.516-1.326,4.034-2.176,3.68-5.706
		C33.47,24.814,31.983,25.621,32.626,29L32.626,29z M31.526,33.428c-3.516-1.324-4.034-2.178-3.679-5.704
		C30.683,29.242,32.17,30.051,31.526,33.428L31.526,33.428z M32.626,33.428c3.516-1.324,4.034-2.178,3.68-5.704
		C33.47,29.242,31.983,30.051,32.626,33.428L32.626,33.428z"/>
</g>
</svg>
