<?xml version="1.0" encoding="utf-8"?>
<!-- Generator: Adobe Illustrator 15.1.0, SVG Export Plug-In . SVG Version: 6.00 Build 0)  -->
<!DOCTYPE svg PUBLIC "-//W3C//DTD SVG 1.1//EN" "http://www.w3.org/Graphics/SVG/1.1/DTD/svg11.dtd">
<svg version="1.1" id="Layer_1" xmlns="http://www.w3.org/2000/svg" xmlns:xlink="http://www.w3.org/1999/xlink" x="0px" y="0px"
	 width="50px" height="50px" viewBox="0 0 50 50" enable-background="new 0 0 50 50" xml:space="preserve">
<circle opacity="0.5" fill-rule="evenodd" clip-rule="evenodd" fill="#E99E32" cx="25" cy="25" r="24"/>
<g opacity="0.5">
	<polygon fill="#FFFFFF" points="23.385,32.704 26.526,32.704 26.497,33.234 25.008,34.044 23.437,33.251 	"/>
	<path fill="#FFFFFF" d="M32.075,24.368c-0.161-0.041-0.319-0.094-0.48-0.155c-0.363-0.144-0.542-0.554-0.398-0.92
		c0.141-0.363,0.554-0.545,0.917-0.401c0.694,0.272,1.351,0.262,1.998-0.034c1.23-0.56,2.212-2.06,2.78-3.182l-5.795,0.388
		c-0.393,0.028-0.729-0.27-0.756-0.659c-0.026-0.391,0.27-0.727,0.659-0.754l6.958-0.466c0.237-0.016,0.469,0.089,0.612,0.28
		s0.185,0.441,0.103,0.665c-0.056,0.157-1.406,3.85-3.973,5.017C33.848,24.535,32.966,24.608,32.075,24.368z"/>
	<path fill="#FFFFFF" d="M17.925,24.368c-0.894,0.24-1.774,0.167-2.625-0.221c-2.567-1.167-3.916-4.86-3.974-5.017
		c-0.08-0.224-0.042-0.475,0.102-0.667c0.145-0.19,0.375-0.294,0.612-0.278l6.958,0.466c0.39,0.028,0.686,0.363,0.66,0.754
		c-0.027,0.39-0.365,0.687-0.756,0.659l-5.789-0.39c0.521,1.046,1.479,2.596,2.775,3.185c0.648,0.294,1.303,0.303,1.998,0.032
		c0.366-0.144,0.774,0.038,0.917,0.401c0.142,0.366-0.038,0.776-0.4,0.92C18.244,24.274,18.083,24.327,17.925,24.368z"/>
	<path fill="#FFFFFF" d="M25.785,19.586c-0.17,0.05-0.352-0.05-0.401-0.22c-0.051-0.171,0.048-0.352,0.221-0.401
		c0.031-0.01,3.202-0.958,3.679-2.626c0.003-0.004,0.305-1.191,0.255-2.401c-0.006-0.129,0.067-0.249,0.182-0.305
		c0.117-0.056,0.258-0.038,0.354,0.047c0.073,0.064,1.787,1.585,1.383,3.609c-0.015,0.076-0.384,2.057-2.487,3.076
		c-0.044,0.022-0.091,0.031-0.141,0.031c-0.12,0.001-0.234-0.066-0.29-0.182c-0.079-0.161-0.012-0.354,0.149-0.434"/>
	<path fill="#FFFFFF" d="M21.217,19.781c0.16,0.079,0.227,0.272,0.148,0.434c-0.056,0.116-0.172,0.182-0.291,0.182
		c-0.047,0-0.096-0.009-0.142-0.031c-2.101-1.02-2.472-3-2.486-3.083c-0.405-2.017,1.311-3.538,1.384-3.602
		c0.099-0.085,0.237-0.103,0.353-0.047c0.116,0.056,0.188,0.176,0.184,0.305c-0.052,1.21,0.253,2.396,0.257,2.408
		c0.474,1.661,3.646,2.609,3.677,2.619c0.171,0.05,0.27,0.23,0.22,0.401c-0.051,0.17-0.228,0.27-0.401,0.22"/>
	<path fill="#FFFFFF" d="M29.705,18.557c-0.132-0.1-0.308-0.157-0.486-0.157h-8.286c-0.113,0-0.225,0.023-0.325,0.064
		c-0.157,0.066-3.836,1.679-4.104,7.283c-0.007,0.152,0.059,0.297,0.183,0.409c0.036,0.032,3.656,3.345,4.312,8.661
		c0.013,0.109,0.063,0.213,0.147,0.298c0.051,0.053,1.274,1.283,3.848,1.283c0.747,0,2.602-0.132,3.709-1.354
		c0.07-0.077,0.114-0.165,0.132-0.261c0.006-0.038,0.721-3.912,4.345-8.593c0.056-0.07,0.091-0.149,0.103-0.231
		C33.312,25.789,33.895,21.775,29.705,18.557z M20.92,26.099c-0.552-0.182-0.836-0.653-0.637-1.058
		c0.198-0.406,0.808-0.587,1.359-0.41c0.551,0.18,0.836,0.653,0.635,1.059C22.08,26.093,21.47,26.278,20.92,26.099z M27.464,34.464
		c-0.742,0.705-1.962,0.785-2.47,0.785c-1.477,0-2.316-0.516-2.613-0.742c-0.137-0.998-0.37-1.923-0.656-2.773
		c0.537-0.144,3.247-0.772,6.589,0.106C27.774,33.163,27.543,34.103,27.464,34.464z M29.222,26.099
		c-0.551,0.179-1.16-0.006-1.359-0.409c-0.199-0.406,0.088-0.879,0.639-1.059c0.551-0.177,1.16,0.004,1.356,0.41
		C30.06,25.446,29.772,25.917,29.222,26.099z"/>
</g>
</svg>
