<?xml version="1.0" encoding="utf-8"?>
<!-- Generator: Adobe Illustrator 15.1.0, SVG Export Plug-In . SVG Version: 6.00 Build 0)  -->
<!DOCTYPE svg PUBLIC "-//W3C//DTD SVG 1.1//EN" "http://www.w3.org/Graphics/SVG/1.1/DTD/svg11.dtd">
<svg version="1.1" id="Layer_1" xmlns="http://www.w3.org/2000/svg" xmlns:xlink="http://www.w3.org/1999/xlink" x="0px" y="0px"
	 width="195px" height="48px" viewBox="0 0 195 48" enable-background="new 0 0 195 48" xml:space="preserve">
<g>
	<g>
		<path fill="#003964" d="M35.635,22.651c-3.896-2.678-8.884-1.586-11.504,2.44c-2.189,3.365-5.492,3.785-6.769,3.785
			c-4.168,0-7.021-2.967-7.867-6.034H9.492c-0.007-0.032-0.014-0.055-0.022-0.087c-0.007-0.034-0.019-0.068-0.026-0.104
			c-0.333-1.278-0.413-1.889-0.413-3.251c0-7.336,7.441-15.506,18.163-15.506c10.98,0,17.262,8.452,18.879,13.148
			c-0.027-0.08-0.053-0.163-0.081-0.25C42.874,7.608,34.26,1,24.119,1C11.352,1,1,11.467,1,24.379
			c0,11.54,8.232,21.419,19.648,21.419c9.108,0,15.228-5.164,18.035-12.28C40.224,29.627,39.133,25.051,35.635,22.651"/>
		<path fill="#ED1A3B" d="M46.217,17.499c-1.349-4.58-7.678-13.605-19.023-13.605c-10.722,0-18.163,8.168-18.163,15.504
			c0,1.364,0.081,1.975,0.413,3.253c-0.14-0.559-0.212-1.121-0.212-1.666c0-7.643,7.566-12.938,15.34-12.938
			c10.53,0,19.062,8.632,19.062,19.276c0,8.347-4.748,15.568-11.648,19.039l0.002,0.007c8.894-3.26,15.245-11.871,15.245-21.99
			C47.233,21.985,46.918,19.872,46.217,17.499"/>
	</g>
	<g>
		<path fill="#575756" d="M63.371,25.941v2.938h4.486v-2.938h3.12v10.845H60.231V25.941H63.371z M77.479,38.969v8.008h-3.191v-5.46
			H62.413v-2.548H77.479z M63.371,34.262h4.486v-2.934h-4.486V34.262z M77.479,24.608v13.344h-3.191V24.608H77.479z"/>
		<path fill="#575756" d="M84.958,39.359c2.303-0.05,4.078-0.195,6.022-0.584l0.265,2.62c-2.471,0.486-4.654,0.584-7.894,0.584
			H81.84V27.13h8.422v2.549h-5.304V39.359z M92.588,25.019h2.951v20.938h-2.951V35.356h-3.839v-2.597h3.839V25.019z M100.169,24.583
			v22.345H97.17V24.583H100.169z"/>
		<path fill="#575756" d="M115.495,34.118c0,4.925-2.472,8.008-5.808,8.008c-3.334,0-5.807-3.083-5.807-8.008
			c0-4.901,2.473-7.958,5.807-7.958C113.024,26.161,115.495,29.217,115.495,34.118z M106.929,34.118
			c0,3.323,1.129,5.094,2.759,5.094c1.634,0,2.761-1.771,2.761-5.094c0-3.301-1.127-5.072-2.761-5.072
			C108.058,29.046,106.929,30.818,106.929,34.118z M121.564,24.583V47h-3.167V24.583H121.564z"/>
		<path fill="#575756" d="M129.475,39.359c2.975-0.025,5.397-0.146,8.109-0.584l0.286,2.573c-3.189,0.509-6.021,0.584-9.739,0.584
			h-1.8V26.476h10.22v2.57h-7.076v3.639h6.332v2.498h-6.332V39.359z M143.869,24.583V47h-3.167V35.039h-3.791v-2.571h3.791v-7.885
			H143.869z"/>
		<path fill="#575756" d="M172.844,41.857v2.572h-20.009v-2.572h8.371v-3.979h-6.692v-2.547h2.879v-6.333h-2.999v-2.549h16.793
			v2.549h-2.998v6.333h2.927v2.547h-6.741v3.979H172.844z M160.537,35.331h4.51v-6.333h-4.51V35.331z"/>
		<path fill="#575756" d="M187.09,35.549c-2.903,0.412-5.374,0.435-9.453,0.435h-1.726v-10.14h10.196v2.476h-7.055v1.385h6.38v2.329
			h-6.38v1.453c3.168-0.025,5.304-0.072,7.798-0.436L187.09,35.549z M194,44.379v2.401h-15.164v-5.919h11.396V39.65h-11.443v-2.402
			h14.587v5.87h-11.419v1.262H194z M190.209,31.862h-3.502v-2.522h3.502v-4.73h3.167v11.816h-3.167V31.862z"/>
	</g>
	<g>
		<path fill="#575756" d="M72.763,7.812v1.308H60.025V7.812h5.569V6.139h-3.898V1.315h1.606v3.517h8.015v1.308h-4.117v1.673H72.763z
			 M71.207,12.668c0,1.654-1.824,2.616-4.85,2.616c-3.009,0-4.849-0.962-4.849-2.616c0-1.671,1.84-2.618,4.849-2.618
			C69.382,10.05,71.207,10.996,71.207,12.668z M69.584,12.668c0-0.899-1.169-1.357-3.228-1.357s-3.211,0.458-3.211,1.357
			c0,0.882,1.153,1.355,3.211,1.355S69.584,13.55,69.584,12.668z"/>
		<path fill="#575756" d="M88.932,8.474c-2.215,0.362-4.115,0.425-6.813,0.425h-1.186V4.705h4.833V3.177h-4.865V1.868h6.44v4.083
			h-4.818v1.623c2.416,0,4.176-0.08,6.221-0.426L88.932,8.474z M82.602,10.208h9.214v4.904h-9.214V10.208z M84.177,13.817h6.066
			v-2.316h-6.066V13.817z M91.816,1.031v8.466h-1.604V1.031H91.816z"/>
		<path fill="#575756" d="M107.563,9.45v1.435h4.007v4.384h-1.605v-3.091h-8.154v-1.293h4.146V9.45h-5.566V8.141h12.737V9.45
			H107.563z M101.061,6.25c2.853-0.221,4.63-1.278,4.785-2.57h-4.192V2.404h4.303V1h1.606v1.403h4.286V3.68h-4.177
			c0.156,1.292,1.917,2.349,4.786,2.57L111.96,7.48c-2.449-0.205-4.334-1.024-5.208-2.302c-0.873,1.278-2.761,2.097-5.208,2.302
			L101.061,6.25z"/>
		<path fill="#575756" d="M128.079,9.308c-1.559-0.552-2.697-1.687-3.321-3.075c-0.607,1.562-1.777,2.775-3.429,3.375l-0.875-1.262
			c2.261-0.772,3.463-2.695,3.463-4.777V1.915h1.621v1.67c0,1.892,1.217,3.69,3.354,4.431L128.079,9.308z M124.306,13.692h7.843
			v1.324h-9.448v-4.493h1.605V13.692z M133.583,5.304v1.339h-1.994v4.888h-1.607V1.031h1.607v4.273H133.583z"/>
		<path fill="#575756" d="M148.535,8.788c-1.623-0.566-2.791-1.686-3.415-3.106c-0.639,1.545-1.839,2.774-3.51,3.359l-0.794-1.276
			c2.215-0.773,3.462-2.698,3.462-4.683V1.694h1.637v1.388c0,1.922,1.247,3.704,3.415,4.43L148.535,8.788z M142.891,10.255h9.494
			v5.029h-1.605v-3.72h-7.889V10.255z M152.385,1.031v8.547h-1.605V1.031H152.385z"/>
		<path fill="#575756" d="M168.132,9.136v1.449h4.021v4.526h-9.666v-4.526h4.037V9.136h-5.566V7.827h12.738v1.309H168.132z
			 M164.094,2.766h-1.996V1.458h10.431v1.309h-1.98v2.617h1.902v1.308h-10.273V5.384h1.917V2.766L164.094,2.766z M170.58,11.879
			h-6.502v1.938h6.502V11.879z M168.943,2.766H165.7v2.617h3.243V2.766z"/>
		<path fill="#575756" d="M193.919,10.68h-5.628v4.621h-1.605V10.68h-5.535V9.371h12.769V10.68z M192.344,7.827h-9.651V1.599h1.606
			v1.797h6.438V1.599h1.606V7.827L192.344,7.827z M190.737,4.705h-6.438v1.813h6.438V4.705z"/>
	</g>
</g>
</svg>
